# xmcd CD database file
#
# Track frame offsets:
#	150
#	14637
#	31384
#	41958
#	52682
#	62119
#	71432
#	80335
#	92094
#	101875
#	110811
#	122375
#	136837
#	152163
#	162641
#	176295
#
# Disc length: 2577 seconds
#
# Revision: 0
# Processed by: cddbd v1.5.2PL0 Copyright (c) Steve Scherf et al.
# Submitted via: CDex 1.51
#
DISCID=d60a0f10
DTITLE=Various Artist - Hanks A Lot!
DYEAR=2002
DGENRE=Country
TTITLE0=Hank Williams - Lovesick Blues (Live on the Grand Ole Opry)
TTITLE1=Molly O'Day - Six More Miles
TTITLE2=Johnny Cash - Lonesome Whistle
TTITLE3=Kitty Wells - Mansion On The Hill
TTITLE4=Jerry Lee Lewis - You Win Again
TTITLE5=Brenda Lee - Jambalaya
TTITLE6=George Jones - Honky Tonkin'
TTITLE7=Patsy Cline - Your Cheatin' Heart (Live on the Arthur Godfrey Show)
TTITLE8=Ray Charles - Hey Good Lookin'
TTITLE9=Connie Stevens - Settin' The Woods On Fire
TTITLE10=Louis Armstrong - My Bucket's Got A Hole In It
TTITLE11=Wanda Jackson - Weary Blues From Waiting
TTITLE12=Charlie Pride - Kaw-Liga
TTITLE13=Skeeter Davis - I Can't Help It (If I'm Still In Love With You)
TTITLE14=Tony Bennett - Cold, Cold Heart
TTITLE15=Al Green - I'm So Lonesome I Could Cry
EXTD=YEAR: 2002
EXTT0=
EXTT1=
EXTT2=
EXTT3=
EXTT4=
EXTT5=
EXTT6=
EXTT7=
EXTT8=
EXTT9=
EXTT10=
EXTT11=
EXTT12=
EXTT13=
EXTT14=
EXTT15=
PLAYORDER=
